<svg width="123" height="54" viewBox="0 0 123 54" fill="none" xmlns="http://www.w3.org/2000/svg">
  <path d="M9.39214 8.74543H11.1863V16.2705L13.4866 16.8937V8.74543H15.2808C15.6245 8.73937 15.9521 8.59809 16.193 8.352C16.4339 8.10591 16.5689 7.77468 16.5689 7.42969V6.02167H28.8292L28.1621 5.35224L26.4139 3.71338H16.4769V1.4051C16.4799 1.23341 16.4489 1.06283 16.3855 0.903328C16.3221 0.743823 16.2278 0.598577 16.1078 0.476089C15.9879 0.353601 15.8449 0.256348 15.6871 0.189949C15.5293 0.123549 15.3598 0.0893281 15.1887 0.0893555H9.39214C9.22102 0.0893281 9.0516 0.123549 8.8938 0.189949C8.736 0.256348 8.59295 0.353601 8.47303 0.476089C8.35311 0.598577 8.25873 0.743823 8.19537 0.903328C8.132 1.06283 8.10091 1.23341 8.10397 1.4051V7.2912C8.08474 7.47332 8.10365 7.65753 8.15943 7.83192C8.2152 8.0063 8.30661 8.16707 8.42786 8.30396C8.54911 8.44084 8.69751 8.55077 8.86355 8.6268C9.02959 8.70283 9.20964 8.74323 9.39214 8.74543Z" fill="white"/>
  <path d="M55.558 0.666992H49.6924C49.3465 0.672927 49.0164 0.813467 48.7718 1.05894C48.5272 1.30441 48.3872 1.63563 48.3813 1.98273V3.71395H36.167C37.4199 4.39059 38.6195 5.16226 39.7554 6.02223H48.3813V7.79959C48.3872 8.14669 48.5272 8.47791 48.7718 8.72338C49.0164 8.96885 49.3465 9.10939 49.6924 9.11533H51.4636V19.8719C52.3103 20.3707 53.0843 20.9844 53.7639 21.6955V9.11533H55.558C55.9039 9.10939 56.234 8.96885 56.4786 8.72338C56.7232 8.47791 56.8633 8.14669 56.8692 7.79959V1.91349C56.8462 1.5786 56.6986 1.26465 56.4558 1.03379C56.2129 0.802929 55.8925 0.671983 55.558 0.666992V0.666992Z" fill="white"/>
  <path d="M41.2343 44.2011H17.0525V42.0544C17.0466 41.7073 16.9066 41.3761 16.662 41.1307C16.4174 40.8852 16.0873 40.7447 15.7414 40.7387H13.6022V20.8301L11.4357 19.6343L11.3019 40.6464H9.16272C8.81683 40.6523 8.48676 40.7928 8.24214 41.0383C7.99753 41.2838 7.85748 41.615 7.85156 41.9621V48.5638C7.85759 48.9087 7.99842 49.2375 8.24365 49.4793C8.48889 49.721 8.81893 49.8565 9.16272 49.8564H15.7414C16.0852 49.8565 16.4153 49.721 16.6605 49.4793C16.9057 49.2375 17.0465 48.9087 17.0525 48.5638V46.4171L40.9256 46.5373C40.9256 45.5026 40.9256 44.9852 41.2343 44.2011Z" fill="white"/>
  <path d="M9.20874 29.5435C5.71124 30.3329 2.51588 32.1206 0.00776194 34.691C-0.19926 35.1526 3.75716 33.583 9.20874 31.8517V29.5435Z" fill="#E9CC3C"/>
  <path d="M35.1088 48.4712C33.3836 52.2337 30.9453 53.6417 31.4283 53.8033C34.758 52.9331 37.7484 51.0747 40.0083 48.4712H35.1088Z" fill="#E9CC3C"/>
  <path fill-rule="evenodd" clip-rule="evenodd" d="M44.8397 20.9798C45.8204 20.6281 46.858 20.4637 47.899 20.495C50.5279 20.7952 51.9652 22.7296 53.4473 24.7242C53.5603 24.8763 53.6736 25.0287 53.7876 25.1808C53.0127 25.2578 52.2441 25.3889 51.4874 25.5732C49.5666 26.2056 47.8076 27.2536 46.3349 28.6432C45.9312 28.9809 45.614 29.4107 45.4099 29.8966C45.2058 30.3826 45.1207 30.9106 45.1617 31.4363C45.2307 33.4224 45.1847 35.4109 45.0237 37.3916C44.7599 39.8704 44.0352 42.2697 42.8948 44.4677H36.3592C36.9066 41.555 36.8911 38.5567 36.3058 35.6373C36.2282 33.6883 35.428 31.8388 34.0621 30.451C32.6962 29.0633 30.8631 28.2374 28.922 28.1354H25.2876C24.9097 28.1821 24.5467 28.2265 24.1963 28.2693C20.1035 28.7693 17.7302 29.0593 13.5052 30.451V28.4294C16.5235 27.1359 19.4832 26.5437 21.0912 26.2219C21.4127 26.1576 21.6801 26.1041 21.8832 26.058C21.8832 26.058 22.8493 25.804 22.8493 25.1808C22.8226 24.9926 22.7526 24.8134 22.6448 24.6571C22.537 24.5009 22.3944 24.3719 22.2283 24.2806C21.0162 23.7158 19.7627 23.245 18.4789 22.8725C15.7416 21.8799 2.95225 16.871 3.32029 15.9477C3.28359 15.7709 5.10618 16.2826 7.82947 17.0473C13.6415 18.6792 23.556 21.463 28.2549 21.1644C28.9844 21.1948 29.7097 21.0385 30.3623 20.71C31.0149 20.3815 31.5735 19.8916 31.9854 19.2867C32.3972 18.6817 32.6489 17.9814 32.7166 17.2519C32.7843 16.5224 32.6658 15.7876 32.3724 15.1167C31.0254 11.9152 29.0186 9.03606 26.4837 6.66837C26.2973 6.49226 26.0493 6.24134 25.7303 5.91845C24.7112 4.8871 22.9664 3.12138 20.1811 0.713026C20.151 0.687879 20.1045 0.65725 20.0512 0.622097C19.8598 0.495917 19.58 0.311436 19.652 0.11285C19.7159 -0.0635275 20.0129 0.00513255 20.2654 0.0635108C20.3764 0.0891736 20.4789 0.11285 20.5491 0.11285C23.2634 0.551424 35.9148 3.43675 41.6654 10.754C42.6289 11.9362 43.2984 13.3315 43.6184 14.8246C43.9383 16.3177 43.8996 17.8657 43.5055 19.3408C43.0455 20.495 43.8736 21.2337 44.8397 20.9798Z" fill="#E9CC3C"/>
  <path d="M55.5581 41.1078H53.7639V26.958C52.9567 27.0375 52.1741 27.281 51.4636 27.6736V41.1078H49.6924C49.3487 41.1078 49.0186 41.2432 48.7734 41.485C48.5281 41.7267 48.3874 42.0555 48.3813 42.4004V44.2009H30.5122C30.0086 45.0099 29.4474 45.7813 28.833 46.5092H48.3813V48.2865C48.3813 48.6355 48.5195 48.9701 48.7653 49.2169C49.0112 49.4636 49.3447 49.6023 49.6924 49.6023H55.5581C55.9058 49.6023 56.2393 49.4636 56.4852 49.2169C56.7311 48.9701 56.8692 48.6355 56.8692 48.2865V42.4004C56.8632 42.0555 56.7224 41.7267 56.4771 41.485C56.2319 41.2432 55.9019 41.1078 55.5581 41.1078Z" fill="white"/>
  <path d="M66.3281 23.1699V6.78543H69.5454V20.3498H75.4637V23.1699H66.3281Z" fill="white"/>
  <path d="M81.8844 23.4876C80.9509 23.4876 80.1003 23.2559 79.3324 22.7925C78.5711 22.3225 77.9653 21.6804 77.5152 20.8661C77.0716 20.0453 76.8499 19.1118 76.8499 18.0659C76.8499 17.0464 77.065 16.1328 77.4953 15.3252C77.9256 14.5109 78.5181 13.8688 79.2728 13.3988C80.0341 12.9222 80.9046 12.6838 81.8844 12.6838C82.6059 12.6838 83.2779 12.8229 83.9001 13.1009C84.529 13.3723 85.0421 13.753 85.4393 14.2428V13.0016H88.4878V23.1699H85.4393V21.8293C84.9759 22.3656 84.443 22.776 83.8406 23.0607C83.2381 23.3453 82.5861 23.4876 81.8844 23.4876ZM82.788 20.8959C83.3176 20.8959 83.7876 20.7768 84.198 20.5384C84.6085 20.2935 84.9296 19.9592 85.1613 19.5355C85.393 19.1118 85.5088 18.6286 85.5088 18.0857C85.5088 17.5363 85.3896 17.053 85.1513 16.636C84.9196 16.2123 84.5986 15.8813 84.1881 15.643C83.7843 15.398 83.3176 15.2756 82.788 15.2756C82.265 15.2756 81.7983 15.398 81.3879 15.643C80.9774 15.8813 80.653 16.2123 80.4147 16.636C80.1764 17.0596 80.0572 17.5429 80.0572 18.0857C80.0572 18.6286 80.1731 19.1118 80.4048 19.5355C80.6431 19.9592 80.9675 20.2935 81.3779 20.5384C81.7884 20.7768 82.2584 20.8959 82.788 20.8959Z" fill="white"/>
  <path d="M98.697 23.4876C97.9953 23.4876 97.3366 23.342 96.721 23.0507C96.1053 22.7594 95.5724 22.3523 95.1223 21.8293V23.1699H92.0738V6.09033H95.1223V14.2428C95.5261 13.753 96.0325 13.3723 96.6415 13.1009C97.2506 12.8229 97.9093 12.6838 98.6176 12.6838C99.5974 12.6838 100.471 12.9222 101.239 13.3988C102.007 13.8688 102.609 14.5109 103.046 15.3252C103.483 16.1328 103.702 17.053 103.702 18.0857C103.702 19.1383 103.477 20.0717 103.027 20.886C102.576 21.7003 101.971 22.3391 101.209 22.8025C100.455 23.2593 99.6172 23.4876 98.697 23.4876ZM97.7835 20.8959C98.3197 20.8959 98.7897 20.7768 99.1935 20.5384C99.5974 20.2935 99.9151 19.9625 100.147 19.5454C100.379 19.1218 100.494 18.6418 100.494 18.1056C100.494 17.5628 100.375 17.0795 100.137 16.6558C99.8986 16.2255 99.5775 15.8879 99.1737 15.643C98.7699 15.398 98.3065 15.2756 97.7835 15.2756C97.2605 15.2756 96.7905 15.398 96.3734 15.643C95.963 15.8879 95.6386 16.2222 95.4003 16.6459C95.162 17.0696 95.0428 17.5561 95.0428 18.1056C95.0428 18.6418 95.1587 19.1218 95.3904 19.5454C95.6287 19.9625 95.9531 20.2935 96.3635 20.5384C96.7806 20.7768 97.2539 20.8959 97.7835 20.8959Z" fill="white"/>
  <path d="M111.389 23.4876C110.29 23.4876 109.303 23.2526 108.43 22.7826C107.562 22.306 106.874 21.6605 106.364 20.8463C105.854 20.032 105.6 19.1118 105.6 18.0857C105.6 17.3311 105.742 16.626 106.027 15.9707C106.318 15.3153 106.722 14.7426 107.238 14.2528C107.754 13.7563 108.354 13.3723 109.035 13.1009C109.717 12.8229 110.455 12.6838 111.25 12.6838C112.309 12.6838 113.236 12.9056 114.03 13.3491C114.831 13.7861 115.453 14.3951 115.897 15.1763C116.347 15.9574 116.572 16.8677 116.572 17.907C116.572 17.9931 116.569 18.0692 116.562 18.1354C116.562 18.195 116.552 18.3108 116.533 18.4829H108.737C108.737 18.9993 108.853 19.4495 109.085 19.8334C109.323 20.2174 109.654 20.5186 110.078 20.737C110.502 20.9489 110.995 21.0548 111.558 21.0548C112.087 21.0548 112.554 20.9522 112.958 20.747C113.368 20.5418 113.762 20.2141 114.139 19.7639L116.334 20.8661C115.857 21.687 115.182 22.3291 114.308 22.7925C113.434 23.2559 112.461 23.4876 111.389 23.4876ZM108.847 16.7948H113.573C113.507 16.4043 113.365 16.0666 113.146 15.782C112.935 15.4973 112.663 15.2789 112.332 15.1266C112.001 14.9743 111.627 14.8982 111.21 14.8982C110.767 14.8982 110.376 14.9743 110.038 15.1266C109.701 15.2789 109.429 15.4973 109.224 15.782C109.019 16.0666 108.893 16.4043 108.847 16.7948Z" fill="white"/>
  <path d="M119.284 23.1699V6.09033H122.333V23.1699H119.284Z" fill="white"/>
  <path d="M66.3281 44.2335V27.849H75.5332V30.6691H68.7709L69.5454 29.9641V35.505L68.7709 34.6113H75.0864V37.4314H68.7709L69.5454 36.5377V44.2335H66.3281Z" fill="white"/>
  <path d="M78.3425 44.2335V34.0652H81.391V35.5249C81.7683 34.9556 82.2284 34.5186 82.7712 34.2141C83.3207 33.903 83.9099 33.7474 84.5388 33.7474C84.8962 33.7474 85.267 33.8004 85.6509 33.9063C86.0349 34.0122 86.356 34.1479 86.6141 34.3134L85.3431 36.8853C85.118 36.733 84.8532 36.6139 84.5487 36.5278C84.2508 36.4351 83.9728 36.3888 83.7146 36.3888C83.3174 36.3888 82.94 36.4914 82.5826 36.6966C82.2251 36.9018 81.9371 37.1699 81.7187 37.5009C81.5002 37.8253 81.391 38.1762 81.391 38.5535V44.2335H78.3425Z" fill="white"/>
  <path d="M93.0804 44.5512C91.9815 44.5512 90.9951 44.3162 90.1213 43.8462C89.2541 43.3696 88.5656 42.7241 88.0558 41.9099C87.5461 41.0956 87.2912 40.1754 87.2912 39.1493C87.2912 38.3946 87.4336 37.6896 87.7182 37.0342C88.0095 36.3789 88.4133 35.8062 88.9297 35.3164C89.446 34.8199 90.0451 34.4359 90.727 34.1645C91.4089 33.8864 92.147 33.7474 92.9414 33.7474C94.0006 33.7474 94.9274 33.9692 95.7218 34.4127C96.5228 34.8496 97.1451 35.4587 97.5886 36.2398C98.0388 37.021 98.2639 37.9312 98.2639 38.9706C98.2639 39.0566 98.2605 39.1328 98.2539 39.199C98.2539 39.2586 98.244 39.3744 98.2241 39.5465H90.4291C90.4291 40.0629 90.545 40.513 90.7767 40.897C91.015 41.281 91.346 41.5822 91.7696 41.8006C92.1933 42.0125 92.6865 42.1184 93.2492 42.1184C93.7788 42.1184 94.2455 42.0158 94.6493 41.8106C95.0598 41.6053 95.4537 41.2776 95.831 40.8275L98.0255 41.9297C97.5489 42.7506 96.8737 43.3927 95.9998 43.8561C95.126 44.3195 94.1528 44.5512 93.0804 44.5512ZM90.5383 37.8584H95.265C95.1988 37.4678 95.0565 37.1302 94.838 36.8456C94.6262 36.5609 94.3548 36.3424 94.0238 36.1902C93.6928 36.0379 93.3187 35.9618 92.9017 35.9618C92.4581 35.9618 92.0675 36.0379 91.7299 36.1902C91.3923 36.3424 91.1209 36.5609 90.9157 36.8456C90.7105 37.1302 90.5847 37.4678 90.5383 37.8584Z" fill="white"/>
  <path d="M105.9 44.5512C104.801 44.5512 103.815 44.3162 102.941 43.8462C102.074 43.3696 101.385 42.7241 100.876 41.9099C100.366 41.0956 100.111 40.1754 100.111 39.1493C100.111 38.3946 100.253 37.6896 100.538 37.0342C100.829 36.3789 101.233 35.8062 101.749 35.3164C102.266 34.8199 102.865 34.4359 103.547 34.1645C104.229 33.8864 104.967 33.7474 105.761 33.7474C106.82 33.7474 107.747 33.9692 108.542 34.4127C109.343 34.8496 109.965 35.4587 110.408 36.2398C110.859 37.021 111.084 37.9312 111.084 38.9706C111.084 39.0566 111.08 39.1328 111.074 39.199C111.074 39.2586 111.064 39.3744 111.044 39.5465H103.249C103.249 40.0629 103.365 40.513 103.596 40.897C103.835 41.281 104.166 41.5822 104.589 41.8006C105.013 42.0125 105.506 42.1184 106.069 42.1184C106.599 42.1184 107.065 42.0158 107.469 41.8106C107.88 41.6053 108.273 41.2776 108.651 40.8275L110.845 41.9297C110.369 42.7506 109.693 43.3927 108.82 43.8561C107.946 44.3195 106.973 44.5512 105.9 44.5512ZM103.358 37.8584H108.085C108.019 37.4678 107.876 37.1302 107.658 36.8456C107.446 36.5609 107.175 36.3424 106.844 36.1902C106.513 36.0379 106.138 35.9618 105.721 35.9618C105.278 35.9618 104.887 36.0379 104.55 36.1902C104.212 36.3424 103.941 36.5609 103.735 36.8456C103.53 37.1302 103.404 37.4678 103.358 37.8584Z" fill="white"/>
  </svg>
  